# MagicaVoxel @ Ephtracy

# group
o 

# material
mtllib Grass-8.mtl
usemtl palette

# normals
vn 1 0 0
vn -1 0 0
vn 0 0 -1
vn 0 0 1
vn 0 -1 0
vn 0 1 0

# texcoords
vt 0.0839844 0.5
vt 0.185547 0.5
vt 0.212891 0.5

# verts
v 0.6 0.6 -0.4
v 0.6 0.6 -0.2
v 0.6 0.6 -0.1
v 0.6 0.6 -5.96046e-008
v 0.6 0.6 0.2
v 0.6 0.6 0.4
v 0.6 0.7 -0.5
v 0.6 0.7 -0.4
v 0.6 0.7 -0.2
v 0.6 0.7 -0.1
v 0.6 0.7 0.1
v 0.6 0.7 0.2
v 0.6 0.7 0.4
v 0.6 0.7 0.5
v 0.6 0.8 -5.96046e-008
v 0.6 0.8 0.1
v 0.6 1 -0.5
v 0.6 1 0.5
v 0.5 0 -0.5
v 0.5 0 0.5
v 0.5 0.6 -0.4
v 0.5 0.6 -0.2
v 0.5 0.6 -0.1
v 0.5 0.6 -5.96046e-008
v 0.5 0.6 0.2
v 0.5 0.6 0.4
v 0.5 0.7 -0.6
v 0.5 0.7 -0.5
v 0.5 0.7 -0.4
v 0.5 0.7 -0.2
v 0.5 0.7 -0.1
v 0.5 0.7 0.1
v 0.5 0.7 0.2
v 0.5 0.7 0.4
v 0.5 0.7 0.5
v 0.5 0.7 0.6
v 0.5 0.8 -5.96046e-008
v 0.5 0.8 0.1
v 0.5 1 -0.6
v 0.5 1 -0.5
v 0.5 1 -0.1
v 0.5 1 -5.96046e-008
v 0.5 1 0.5
v 0.5 1 0.6
v 0.5 1.1 -0.2
v 0.5 1.1 -0.1
v 0.5 1.1 -5.96046e-008
v 0.5 1.2 -0.2
v 0.5 1.2 -0.1
v 0.4 0.6 -0.6
v 0.4 0.6 -0.5
v 0.4 0.6 0.5
v 0.4 0.6 0.6
v 0.4 0.7 -0.6
v 0.4 0.7 -0.5
v 0.4 0.7 0.5
v 0.4 0.7 0.6
v 0.4 1 0.3
v 0.4 1 0.4
v 0.4 1.1 0.2
v 0.4 1.1 0.3
v 0.4 1.1 0.4
v 0.4 1.1 0.5
v 0.4 1.2 0.2
v 0.4 1.2 0.3
v 0.4 1.2 0.4
v 0.4 1.2 0.5
v 0.2 1 -0.3
v 0.2 1 -0.2
v 0.2 1.1 -0.4
v 0.2 1.1 -0.3
v 0.2 1.1 -0.2
v 0.2 1.1 -0.1
v 0.2 1.2 -0.4
v 0.2 1.2 -0.3
v 0.2 1.2 -0.2
v 0.2 1.2 -0.1
v 0.1 0.6 -0.6
v 0.1 0.6 -0.5
v 0.1 0.8 -0.6
v 0.1 0.8 -0.5
v 5.96046e-008 0.6 0.5
v 5.96046e-008 0.6 0.6
v 5.96046e-008 0.8 0.5
v 5.96046e-008 0.8 0.6
v -0.2 0.6 0.5
v -0.2 0.6 0.6
v -0.2 0.7 0.5
v -0.2 0.7 0.6
v -0.2 1 0.1
v -0.2 1 0.2
v -0.2 1.1 0.1
v -0.2 1.1 0.2
v -0.2 1.1 0.3
v -0.2 1.2 0.2
v -0.2 1.2 0.3
v -0.3 0.6 -0.6
v -0.3 0.6 -0.5
v -0.3 0.7 -0.6
v -0.3 0.7 -0.5
v -0.4 1 -0.5
v -0.4 1 -0.4
v -0.4 1.1 -0.5
v -0.4 1.1 -0.4
v 0.4 1 -0.1
v 0.4 1 -5.96046e-008
v 0.4 1.1 -0.2
v 0.4 1.1 -0.1
v 0.4 1.1 -5.96046e-008
v 0.4 1.2 -0.2
v 0.4 1.2 -0.1
v 0.3 0.6 -0.6
v 0.3 0.6 -0.5
v 0.3 0.7 -0.6
v 0.3 0.7 -0.5
v 0.3 1 0.3
v 0.3 1 0.4
v 0.3 1.1 0.2
v 0.3 1.1 0.3
v 0.3 1.1 0.4
v 0.3 1.1 0.5
v 0.3 1.2 0.2
v 0.3 1.2 0.3
v 0.3 1.2 0.4
v 0.3 1.2 0.5
v 0.2 0.6 0.5
v 0.2 0.6 0.6
v 0.2 0.7 -0.6
v 0.2 0.7 -0.5
v 0.2 0.7 0.5
v 0.2 0.7 0.6
v 0.2 0.8 -0.6
v 0.2 0.8 -0.5
v 0.1 0.7 0.5
v 0.1 0.7 0.6
v 0.1 0.8 0.5
v 0.1 0.8 0.6
v 0.1 1 -0.3
v 0.1 1 -0.2
v 0.1 1.1 -0.4
v 0.1 1.1 -0.3
v 0.1 1.1 -0.2
v 0.1 1.1 -0.1
v 0.1 1.2 -0.4
v 0.1 1.2 -0.3
v 0.1 1.2 -0.2
v 0.1 1.2 -0.1
v -0.1 0.6 -0.6
v -0.1 0.6 -0.5
v -0.1 0.6 0.5
v -0.1 0.6 0.6
v -0.1 0.7 -0.6
v -0.1 0.7 -0.5
v -0.1 0.7 0.5
v -0.1 0.7 0.6
v -0.3 1 0.1
v -0.3 1 0.2
v -0.3 1.1 0.1
v -0.3 1.1 0.2
v -0.3 1.1 0.3
v -0.3 1.2 0.2
v -0.3 1.2 0.3
v -0.4 0.6 -0.6
v -0.4 0.6 -0.5
v -0.4 0.6 0.5
v -0.4 0.6 0.6
v -0.4 0.7 -0.6
v -0.4 0.7 -0.5
v -0.4 0.7 0.5
v -0.4 0.7 0.6
v -0.5 0 -0.5
v -0.5 0 0.5
v -0.5 0.6 -0.4
v -0.5 0.6 -0.2
v -0.5 0.6 -5.96046e-008
v -0.5 0.6 0.1
v -0.5 0.6 0.2
v -0.5 0.6 0.4
v -0.5 0.7 -0.6
v -0.5 0.7 -0.5
v -0.5 0.7 -0.4
v -0.5 0.7 -0.1
v -0.5 0.7 -5.96046e-008
v -0.5 0.7 0.1
v -0.5 0.7 0.2
v -0.5 0.7 0.4
v -0.5 0.7 0.5
v -0.5 0.7 0.6
v -0.5 0.8 -0.2
v -0.5 0.8 -0.1
v -0.5 1 -0.6
v -0.5 1 -0.5
v -0.5 1 -0.4
v -0.5 1 0.5
v -0.5 1 0.6
v -0.5 1.1 -0.5
v -0.5 1.1 -0.4
v -0.6 0.6 -0.4
v -0.6 0.6 -0.2
v -0.6 0.6 -5.96046e-008
v -0.6 0.6 0.1
v -0.6 0.6 0.2
v -0.6 0.6 0.4
v -0.6 0.7 -0.5
v -0.6 0.7 -0.4
v -0.6 0.7 -0.1
v -0.6 0.7 -5.96046e-008
v -0.6 0.7 0.1
v -0.6 0.7 0.2
v -0.6 0.7 0.4
v -0.6 0.7 0.5
v -0.6 0.8 -0.2
v -0.6 0.8 -0.1
v -0.6 1 -0.5
v -0.6 1 0.5
v 0.5 0.7 -0.6
v 0.5 1 -0.6
v 0.4 0.6 -0.6
v 0.4 0.7 -0.6
v 0.3 0.6 -0.6
v 0.3 0.7 -0.6
v 0.2 0.7 -0.6
v 0.2 0.8 -0.6
v 0.1 0.6 -0.6
v 0.1 0.8 -0.6
v -0.1 0.6 -0.6
v -0.1 0.7 -0.6
v -0.3 0.6 -0.6
v -0.3 0.7 -0.6
v -0.4 0.6 -0.6
v -0.4 0.7 -0.6
v -0.5 0.7 -0.6
v -0.5 1 -0.6
v 0.6 0.7 -0.5
v 0.6 1 -0.5
v 0.5 0 -0.5
v 0.5 0.7 -0.5
v 0.5 1 -0.5
v 0.4 0.6 -0.5
v 0.4 0.7 -0.5
v 0.3 0.6 -0.5
v 0.3 0.7 -0.5
v 0.2 0.7 -0.5
v 0.2 0.8 -0.5
v 0.1 0.6 -0.5
v 0.1 0.8 -0.5
v -0.1 0.6 -0.5
v -0.1 0.7 -0.5
v -0.3 0.6 -0.5
v -0.3 0.7 -0.5
v -0.4 0.6 -0.5
v -0.4 0.7 -0.5
v -0.4 1 -0.5
v -0.4 1.1 -0.5
v -0.5 0 -0.5
v -0.5 0.7 -0.5
v -0.5 1 -0.5
v -0.5 1.1 -0.5
v -0.6 0.7 -0.5
v -0.6 1 -0.5
v 0.6 0.6 -0.4
v 0.6 0.7 -0.4
v 0.5 0.6 -0.4
v 0.5 0.7 -0.4
v 0.2 1.1 -0.4
v 0.2 1.2 -0.4
v 0.1 1.1 -0.4
v 0.1 1.2 -0.4
v -0.5 0.6 -0.4
v -0.5 0.7 -0.4
v -0.6 0.6 -0.4
v -0.6 0.7 -0.4
v 0.2 1 -0.3
v 0.2 1.1 -0.3
v 0.1 1 -0.3
v 0.1 1.1 -0.3
v 0.5 1.1 -0.2
v 0.5 1.2 -0.2
v 0.4 1.1 -0.2
v 0.4 1.2 -0.2
v 0.2 1.1 -0.2
v 0.2 1.2 -0.2
v 0.1 1.1 -0.2
v 0.1 1.2 -0.2
v 0.6 0.6 -0.1
v 0.6 0.7 -0.1
v 0.5 0.6 -0.1
v 0.5 0.7 -0.1
v 0.5 1 -0.1
v 0.5 1.1 -0.1
v 0.4 1 -0.1
v 0.4 1.1 -0.1
v -0.5 0.7 -0.1
v -0.5 0.8 -0.1
v -0.6 0.7 -0.1
v -0.6 0.8 -0.1
v -0.5 0.6 -5.96046e-008
v -0.5 0.7 -5.96046e-008
v -0.6 0.6 -5.96046e-008
v -0.6 0.7 -5.96046e-008
v 0.6 0.7 0.1
v 0.6 0.8 0.1
v 0.5 0.7 0.1
v 0.5 0.8 0.1
v -0.2 1 0.1
v -0.2 1.1 0.1
v -0.3 1 0.1
v -0.3 1.1 0.1
v 0.6 0.6 0.2
v 0.6 0.7 0.2
v 0.5 0.6 0.2
v 0.5 0.7 0.2
v 0.4 1.1 0.2
v 0.4 1.2 0.2
v 0.3 1.1 0.2
v 0.3 1.2 0.2
v -0.2 1.1 0.2
v -0.2 1.2 0.2
v -0.3 1.1 0.2
v -0.3 1.2 0.2
v -0.5 0.6 0.2
v -0.5 0.7 0.2
v -0.6 0.6 0.2
v -0.6 0.7 0.2
v 0.4 1 0.3
v 0.4 1.1 0.3
v 0.3 1 0.3
v 0.3 1.1 0.3
v 0.4 1.1 0.4
v 0.4 1.2 0.4
v 0.3 1.1 0.4
v 0.3 1.2 0.4
v -0.4 1 -0.4
v -0.4 1.1 -0.4
v -0.5 1 -0.4
v -0.5 1.1 -0.4
v 0.2 1.1 -0.3
v 0.2 1.2 -0.3
v 0.1 1.1 -0.3
v 0.1 1.2 -0.3
v 0.6 0.6 -0.2
v 0.6 0.7 -0.2
v 0.5 0.6 -0.2
v 0.5 0.7 -0.2
v 0.2 1 -0.2
v 0.2 1.1 -0.2
v 0.1 1 -0.2
v 0.1 1.1 -0.2
v -0.5 0.6 -0.2
v -0.5 0.8 -0.2
v -0.6 0.6 -0.2
v -0.6 0.8 -0.2
v 0.5 1.1 -0.1
v 0.5 1.2 -0.1
v 0.4 1.1 -0.1
v 0.4 1.2 -0.1
v 0.2 1.1 -0.1
v 0.2 1.2 -0.1
v 0.1 1.1 -0.1
v 0.1 1.2 -0.1
v 0.6 0.6 -5.96046e-008
v 0.6 0.8 -5.96046e-008
v 0.5 0.6 -5.96046e-008
v 0.5 0.8 -5.96046e-008
v 0.5 1 -5.96046e-008
v 0.5 1.1 -5.96046e-008
v 0.4 1 -5.96046e-008
v 0.4 1.1 -5.96046e-008
v -0.5 0.6 0.1
v -0.5 0.7 0.1
v -0.6 0.6 0.1
v -0.6 0.7 0.1
v -0.2 1 0.2
v -0.2 1.1 0.2
v -0.3 1 0.2
v -0.3 1.1 0.2
v 0.4 1.1 0.3
v 0.4 1.2 0.3
v 0.3 1.1 0.3
v 0.3 1.2 0.3
v -0.2 1.1 0.3
v -0.2 1.2 0.3
v -0.3 1.1 0.3
v -0.3 1.2 0.3
v 0.6 0.6 0.4
v 0.6 0.7 0.4
v 0.5 0.6 0.4
v 0.5 0.7 0.4
v 0.4 1 0.4
v 0.4 1.1 0.4
v 0.3 1 0.4
v 0.3 1.1 0.4
v -0.5 0.6 0.4
v -0.5 0.7 0.4
v -0.6 0.6 0.4
v -0.6 0.7 0.4
v 0.6 0.7 0.5
v 0.6 1 0.5
v 0.5 0 0.5
v 0.5 0.7 0.5
v 0.5 1 0.5
v 0.4 0.6 0.5
v 0.4 0.7 0.5
v 0.4 1.1 0.5
v 0.4 1.2 0.5
v 0.3 1.1 0.5
v 0.3 1.2 0.5
v 0.2 0.6 0.5
v 0.2 0.7 0.5
v 0.1 0.7 0.5
v 0.1 0.8 0.5
v 5.96046e-008 0.6 0.5
v 5.96046e-008 0.8 0.5
v -0.1 0.6 0.5
v -0.1 0.7 0.5
v -0.2 0.6 0.5
v -0.2 0.7 0.5
v -0.4 0.6 0.5
v -0.4 0.7 0.5
v -0.5 0 0.5
v -0.5 0.7 0.5
v -0.5 1 0.5
v -0.6 0.7 0.5
v -0.6 1 0.5
v 0.5 0.7 0.6
v 0.5 1 0.6
v 0.4 0.6 0.6
v 0.4 0.7 0.6
v 0.2 0.6 0.6
v 0.2 0.7 0.6
v 0.1 0.7 0.6
v 0.1 0.8 0.6
v 5.96046e-008 0.6 0.6
v 5.96046e-008 0.8 0.6
v -0.1 0.6 0.6
v -0.1 0.7 0.6
v -0.2 0.6 0.6
v -0.2 0.7 0.6
v -0.4 0.6 0.6
v -0.4 0.7 0.6
v -0.5 0.7 0.6
v -0.5 1 0.6
v 0.5 0 -0.5
v -0.5 0 -0.5
v 0.5 0 0.5
v -0.5 0 0.5
v 0.4 0.6 -0.6
v 0.3 0.6 -0.6
v 0.1 0.6 -0.6
v -0.1 0.6 -0.6
v -0.3 0.6 -0.6
v -0.4 0.6 -0.6
v 0.4 0.6 -0.5
v 0.3 0.6 -0.5
v 0.1 0.6 -0.5
v -0.1 0.6 -0.5
v -0.3 0.6 -0.5
v -0.4 0.6 -0.5
v 0.6 0.6 -0.4
v 0.5 0.6 -0.4
v -0.5 0.6 -0.4
v -0.6 0.6 -0.4
v 0.6 0.6 -0.2
v 0.5 0.6 -0.2
v -0.5 0.6 -0.2
v -0.6 0.6 -0.2
v 0.6 0.6 -0.1
v 0.5 0.6 -0.1
v 0.6 0.6 -5.96046e-008
v 0.5 0.6 -5.96046e-008
v -0.5 0.6 -5.96046e-008
v -0.6 0.6 -5.96046e-008
v -0.5 0.6 0.1
v -0.6 0.6 0.1
v 0.6 0.6 0.2
v 0.5 0.6 0.2
v -0.5 0.6 0.2
v -0.6 0.6 0.2
v 0.6 0.6 0.4
v 0.5 0.6 0.4
v -0.5 0.6 0.4
v -0.6 0.6 0.4
v 0.4 0.6 0.5
v 0.2 0.6 0.5
v 5.96046e-008 0.6 0.5
v -0.1 0.6 0.5
v -0.2 0.6 0.5
v -0.4 0.6 0.5
v 0.4 0.6 0.6
v 0.2 0.6 0.6
v 5.96046e-008 0.6 0.6
v -0.1 0.6 0.6
v -0.2 0.6 0.6
v -0.4 0.6 0.6
v 0.5 0.7 -0.6
v 0.4 0.7 -0.6
v 0.3 0.7 -0.6
v 0.2 0.7 -0.6
v -0.1 0.7 -0.6
v -0.3 0.7 -0.6
v -0.4 0.7 -0.6
v -0.5 0.7 -0.6
v 0.6 0.7 -0.5
v 0.5 0.7 -0.5
v 0.4 0.7 -0.5
v 0.3 0.7 -0.5
v 0.2 0.7 -0.5
v -0.1 0.7 -0.5
v -0.3 0.7 -0.5
v -0.4 0.7 -0.5
v -0.5 0.7 -0.5
v -0.6 0.7 -0.5
v 0.6 0.7 -0.4
v 0.5 0.7 -0.4
v -0.5 0.7 -0.4
v -0.6 0.7 -0.4
v 0.6 0.7 -0.2
v 0.5 0.7 -0.2
v 0.6 0.7 -0.1
v 0.5 0.7 -0.1
v -0.5 0.7 -0.1
v -0.6 0.7 -0.1
v -0.5 0.7 -5.96046e-008
v -0.6 0.7 -5.96046e-008
v 0.6 0.7 0.1
v 0.5 0.7 0.1
v -0.5 0.7 0.1
v -0.6 0.7 0.1
v 0.6 0.7 0.2
v 0.5 0.7 0.2
v -0.5 0.7 0.2
v -0.6 0.7 0.2
v 0.6 0.7 0.4
v 0.5 0.7 0.4
v -0.5 0.7 0.4
v -0.6 0.7 0.4
v 0.6 0.7 0.5
v 0.5 0.7 0.5
v 0.4 0.7 0.5
v 0.2 0.7 0.5
v 0.1 0.7 0.5
v -0.1 0.7 0.5
v -0.2 0.7 0.5
v -0.4 0.7 0.5
v -0.5 0.7 0.5
v -0.6 0.7 0.5
v 0.5 0.7 0.6
v 0.4 0.7 0.6
v 0.2 0.7 0.6
v 0.1 0.7 0.6
v -0.1 0.7 0.6
v -0.2 0.7 0.6
v -0.4 0.7 0.6
v -0.5 0.7 0.6
v 0.2 0.8 -0.6
v 0.1 0.8 -0.6
v 0.2 0.8 -0.5
v 0.1 0.8 -0.5
v -0.5 0.8 -0.2
v -0.6 0.8 -0.2
v -0.5 0.8 -0.1
v -0.6 0.8 -0.1
v 0.6 0.8 -5.96046e-008
v 0.5 0.8 -5.96046e-008
v 0.6 0.8 0.1
v 0.5 0.8 0.1
v 0.1 0.8 0.5
v 5.96046e-008 0.8 0.5
v 0.1 0.8 0.6
v 5.96046e-008 0.8 0.6
v 0.2 1.1 -0.4
v 0.1 1.1 -0.4
v 0.2 1.1 -0.3
v 0.1 1.1 -0.3
v 0.5 1.1 -0.2
v 0.4 1.1 -0.2
v 0.2 1.1 -0.2
v 0.1 1.1 -0.2
v 0.5 1.1 -0.1
v 0.4 1.1 -0.1
v 0.2 1.1 -0.1
v 0.1 1.1 -0.1
v 0.4 1.1 0.2
v 0.3 1.1 0.2
v -0.2 1.1 0.2
v -0.3 1.1 0.2
v 0.4 1.1 0.3
v 0.3 1.1 0.3
v -0.2 1.1 0.3
v -0.3 1.1 0.3
v 0.4 1.1 0.4
v 0.3 1.1 0.4
v 0.4 1.1 0.5
v 0.3 1.1 0.5
v 0.5 1 -0.6
v -0.5 1 -0.6
v 0.6 1 -0.5
v 0.5 1 -0.5
v -0.4 1 -0.5
v -0.5 1 -0.5
v -0.6 1 -0.5
v -0.4 1 -0.4
v -0.5 1 -0.4
v 0.2 1 -0.3
v 0.1 1 -0.3
v 0.2 1 -0.2
v 0.1 1 -0.2
v 0.5 1 -0.1
v 0.4 1 -0.1
v 0.5 1 -5.96046e-008
v 0.4 1 -5.96046e-008
v -0.2 1 0.1
v -0.3 1 0.1
v -0.2 1 0.2
v -0.3 1 0.2
v 0.4 1 0.3
v 0.3 1 0.3
v 0.4 1 0.4
v 0.3 1 0.4
v 0.6 1 0.5
v 0.5 1 0.5
v -0.5 1 0.5
v -0.6 1 0.5
v 0.5 1 0.6
v -0.5 1 0.6
v -0.4 1.1 -0.5
v -0.5 1.1 -0.5
v -0.4 1.1 -0.4
v -0.5 1.1 -0.4
v 0.2 1.1 -0.3
v 0.1 1.1 -0.3
v 0.2 1.1 -0.2
v 0.1 1.1 -0.2
v 0.5 1.1 -0.1
v 0.4 1.1 -0.1
v 0.5 1.1 -5.96046e-008
v 0.4 1.1 -5.96046e-008
v -0.2 1.1 0.1
v -0.3 1.1 0.1
v -0.2 1.1 0.2
v -0.3 1.1 0.2
v 0.4 1.1 0.3
v 0.3 1.1 0.3
v 0.4 1.1 0.4
v 0.3 1.1 0.4
v 0.2 1.2 -0.4
v 0.1 1.2 -0.4
v 0.2 1.2 -0.3
v 0.1 1.2 -0.3
v 0.5 1.2 -0.2
v 0.4 1.2 -0.2
v 0.2 1.2 -0.2
v 0.1 1.2 -0.2
v 0.5 1.2 -0.1
v 0.4 1.2 -0.1
v 0.2 1.2 -0.1
v 0.1 1.2 -0.1
v 0.4 1.2 0.2
v 0.3 1.2 0.2
v -0.2 1.2 0.2
v -0.3 1.2 0.2
v 0.4 1.2 0.3
v 0.3 1.2 0.3
v -0.2 1.2 0.3
v -0.3 1.2 0.3
v 0.4 1.2 0.4
v 0.3 1.2 0.4
v 0.4 1.2 0.5
v 0.3 1.2 0.5

# faces
f 8/3/1 2/3/1 1/3/1
f 9/3/1 2/3/1 8/3/1
f 10/3/1 4/3/1 3/3/1
f 12/3/1 6/3/1 5/3/1
f 13/3/1 6/3/1 12/3/1
f 15/3/1 10/3/1 9/3/1
f 15/3/1 9/3/1 8/3/1
f 15/3/1 8/3/1 7/3/1
f 15/3/1 4/3/1 10/3/1
f 16/3/1 14/3/1 13/3/1
f 16/3/1 13/3/1 12/3/1
f 16/3/1 12/3/1 11/3/1
f 17/3/1 15/3/1 7/3/1
f 17/3/1 16/3/1 15/3/1
f 18/3/1 14/3/1 16/3/1
f 18/3/1 16/3/1 17/3/1
f 21/1/1 20/1/1 19/1/1
f 22/1/1 20/1/1 21/1/1
f 23/1/1 20/1/1 22/1/1
f 24/1/1 20/1/1 23/1/1
f 25/1/1 20/1/1 24/1/1
f 26/1/1 20/1/1 25/1/1
f 28/1/1 21/1/1 19/1/1
f 29/1/1 21/1/1 28/1/1
f 30/1/1 23/1/1 22/1/1
f 31/1/1 23/1/1 30/1/1
f 32/1/1 25/1/1 24/1/1
f 33/1/1 25/1/1 32/1/1
f 34/1/1 20/1/1 26/1/1
f 35/1/1 20/1/1 34/1/1
f 37/1/1 32/1/1 24/1/1
f 38/1/1 32/1/1 37/1/1
f 39/3/1 28/3/1 27/3/1
f 40/3/1 28/3/1 39/3/1
f 43/3/1 36/3/1 35/3/1
f 44/3/1 36/3/1 43/3/1
f 46/2/1 42/2/1 41/2/1
f 47/2/1 42/2/1 46/2/1
f 48/2/1 46/2/1 45/2/1
f 49/2/1 46/2/1 48/2/1
f 54/3/1 51/3/1 50/3/1
f 55/3/1 51/3/1 54/3/1
f 56/3/1 53/3/1 52/3/1
f 57/3/1 53/3/1 56/3/1
f 61/2/1 59/2/1 58/2/1
f 62/2/1 59/2/1 61/2/1
f 64/2/1 61/2/1 60/2/1
f 65/2/1 61/2/1 64/2/1
f 66/2/1 63/2/1 62/2/1
f 67/2/1 63/2/1 66/2/1
f 71/2/1 69/2/1 68/2/1
f 72/2/1 69/2/1 71/2/1
f 74/2/1 71/2/1 70/2/1
f 75/2/1 71/2/1 74/2/1
f 76/2/1 73/2/1 72/2/1
f 77/2/1 73/2/1 76/2/1
f 80/3/1 79/3/1 78/3/1
f 81/3/1 79/3/1 80/3/1
f 84/3/1 83/3/1 82/3/1
f 85/3/1 83/3/1 84/3/1
f 88/3/1 87/3/1 86/3/1
f 89/3/1 87/3/1 88/3/1
f 92/2/1 91/2/1 90/2/1
f 93/2/1 91/2/1 92/2/1
f 95/2/1 94/2/1 93/2/1
f 96/2/1 94/2/1 95/2/1
f 99/3/1 98/3/1 97/3/1
f 100/3/1 98/3/1 99/3/1
f 103/2/1 102/2/1 101/2/1
f 104/2/1 102/2/1 103/2/1
f 105/2/2 106/2/2 108/2/2
f 108/2/2 106/2/2 109/2/2
f 107/2/2 108/2/2 110/2/2
f 110/2/2 108/2/2 111/2/2
f 112/3/2 113/3/2 114/3/2
f 114/3/2 113/3/2 115/3/2
f 116/2/2 117/2/2 119/2/2
f 119/2/2 117/2/2 120/2/2
f 118/2/2 119/2/2 122/2/2
f 122/2/2 119/2/2 123/2/2
f 120/2/2 121/2/2 124/2/2
f 124/2/2 121/2/2 125/2/2
f 126/3/2 127/3/2 130/3/2
f 130/3/2 127/3/2 131/3/2
f 128/3/2 129/3/2 132/3/2
f 132/3/2 129/3/2 133/3/2
f 134/3/2 135/3/2 136/3/2
f 136/3/2 135/3/2 137/3/2
f 138/2/2 139/2/2 141/2/2
f 141/2/2 139/2/2 142/2/2
f 140/2/2 141/2/2 144/2/2
f 144/2/2 141/2/2 145/2/2
f 142/2/2 143/2/2 146/2/2
f 146/2/2 143/2/2 147/2/2
f 148/3/2 149/3/2 152/3/2
f 152/3/2 149/3/2 153/3/2
f 150/3/2 151/3/2 154/3/2
f 154/3/2 151/3/2 155/3/2
f 156/2/2 157/2/2 158/2/2
f 158/2/2 157/2/2 159/2/2
f 159/2/2 160/2/2 161/2/2
f 161/2/2 160/2/2 162/2/2
f 163/3/2 164/3/2 167/3/2
f 167/3/2 164/3/2 168/3/2
f 165/3/2 166/3/2 169/3/2
f 169/3/2 166/3/2 170/3/2
f 171/1/2 172/1/2 173/1/2
f 173/1/2 172/1/2 174/1/2
f 174/1/2 172/1/2 175/1/2
f 175/1/2 172/1/2 176/1/2
f 176/1/2 172/1/2 177/1/2
f 177/1/2 172/1/2 178/1/2
f 171/1/2 173/1/2 180/1/2
f 180/1/2 173/1/2 181/1/2
f 174/1/2 175/1/2 182/1/2
f 182/1/2 175/1/2 183/1/2
f 176/1/2 177/1/2 184/1/2
f 184/1/2 177/1/2 185/1/2
f 178/1/2 172/1/2 186/1/2
f 186/1/2 172/1/2 187/1/2
f 174/1/2 182/1/2 189/1/2
f 189/1/2 182/1/2 190/1/2
f 179/3/2 180/3/2 191/3/2
f 191/3/2 180/3/2 192/3/2
f 187/3/2 188/3/2 194/3/2
f 194/3/2 188/3/2 195/3/2
f 192/2/2 193/2/2 196/2/2
f 196/2/2 193/2/2 197/2/2
f 198/3/2 199/3/2 205/3/2
f 200/3/2 201/3/2 207/3/2
f 207/3/2 201/3/2 208/3/2
f 202/3/2 203/3/2 209/3/2
f 209/3/2 203/3/2 210/3/2
f 204/3/2 205/3/2 212/3/2
f 205/3/2 199/3/2 212/3/2
f 207/3/2 208/3/2 213/3/2
f 210/3/2 211/3/2 213/3/2
f 208/3/2 209/3/2 213/3/2
f 209/3/2 210/3/2 213/3/2
f 206/3/2 207/3/2 213/3/2
f 204/3/2 212/3/2 214/3/2
f 212/3/2 213/3/2 214/3/2
f 213/3/2 211/3/2 215/3/2
f 214/3/2 213/3/2 215/3/2
f 219/3/3 217/3/3 216/3/3
f 220/3/3 219/3/3 218/3/3
f 221/3/3 217/3/3 219/3/3
f 221/3/3 219/3/3 220/3/3
f 222/3/3 217/3/3 221/3/3
f 223/3/3 217/3/3 222/3/3
f 225/3/3 217/3/3 223/3/3
f 226/3/3 225/3/3 224/3/3
f 227/3/3 225/3/3 226/3/3
f 229/3/3 225/3/3 227/3/3
f 230/3/3 229/3/3 228/3/3
f 231/3/3 225/3/3 229/3/3
f 231/3/3 229/3/3 230/3/3
f 232/3/3 225/3/3 231/3/3
f 233/3/3 217/3/3 225/3/3
f 233/3/3 225/3/3 232/3/3
f 237/3/3 235/3/3 234/3/3
f 238/3/3 235/3/3 237/3/3
f 239/1/3 237/1/3 236/1/3
f 240/1/3 237/1/3 239/1/3
f 241/1/3 239/1/3 236/1/3
f 243/1/3 242/1/3 241/1/3
f 245/1/3 243/1/3 241/1/3
f 245/1/3 244/1/3 243/1/3
f 245/1/3 241/1/3 236/1/3
f 246/1/3 244/1/3 245/1/3
f 247/1/3 245/1/3 236/1/3
f 249/1/3 247/1/3 236/1/3
f 249/1/3 248/1/3 247/1/3
f 250/1/3 248/1/3 249/1/3
f 251/1/3 249/1/3 236/1/3
f 255/1/3 251/1/3 236/1/3
f 255/1/3 252/1/3 251/1/3
f 256/1/3 252/1/3 255/1/3
f 257/2/3 254/2/3 253/2/3
f 258/2/3 254/2/3 257/2/3
f 259/3/3 257/3/3 256/3/3
f 260/3/3 257/3/3 259/3/3
f 263/3/3 262/3/3 261/3/3
f 264/3/3 262/3/3 263/3/3
f 267/2/3 266/2/3 265/2/3
f 268/2/3 266/2/3 267/2/3
f 271/3/3 270/3/3 269/3/3
f 272/3/3 270/3/3 271/3/3
f 275/2/3 274/2/3 273/2/3
f 276/2/3 274/2/3 275/2/3
f 279/2/3 278/2/3 277/2/3
f 280/2/3 278/2/3 279/2/3
f 283/2/3 282/2/3 281/2/3
f 284/2/3 282/2/3 283/2/3
f 287/3/3 286/3/3 285/3/3
f 288/3/3 286/3/3 287/3/3
f 291/2/3 290/2/3 289/2/3
f 292/2/3 290/2/3 291/2/3
f 295/3/3 294/3/3 293/3/3
f 296/3/3 294/3/3 295/3/3
f 299/3/3 298/3/3 297/3/3
f 300/3/3 298/3/3 299/3/3
f 303/3/3 302/3/3 301/3/3
f 304/3/3 302/3/3 303/3/3
f 307/2/3 306/2/3 305/2/3
f 308/2/3 306/2/3 307/2/3
f 311/3/3 310/3/3 309/3/3
f 312/3/3 310/3/3 311/3/3
f 315/2/3 314/2/3 313/2/3
f 316/2/3 314/2/3 315/2/3
f 319/2/3 318/2/3 317/2/3
f 320/2/3 318/2/3 319/2/3
f 323/3/3 322/3/3 321/3/3
f 324/3/3 322/3/3 323/3/3
f 327/2/3 326/2/3 325/2/3
f 328/2/3 326/2/3 327/2/3
f 331/2/3 330/2/3 329/2/3
f 332/2/3 330/2/3 331/2/3
f 333/2/4 334/2/4 335/2/4
f 335/2/4 334/2/4 336/2/4
f 337/2/4 338/2/4 339/2/4
f 339/2/4 338/2/4 340/2/4
f 341/3/4 342/3/4 343/3/4
f 343/3/4 342/3/4 344/3/4
f 345/2/4 346/2/4 347/2/4
f 347/2/4 346/2/4 348/2/4
f 349/3/4 350/3/4 351/3/4
f 351/3/4 350/3/4 352/3/4
f 353/2/4 354/2/4 355/2/4
f 355/2/4 354/2/4 356/2/4
f 357/2/4 358/2/4 359/2/4
f 359/2/4 358/2/4 360/2/4
f 361/3/4 362/3/4 363/3/4
f 363/3/4 362/3/4 364/3/4
f 365/2/4 366/2/4 367/2/4
f 367/2/4 366/2/4 368/2/4
f 369/3/4 370/3/4 371/3/4
f 371/3/4 370/3/4 372/3/4
f 373/2/4 374/2/4 375/2/4
f 375/2/4 374/2/4 376/2/4
f 377/2/4 378/2/4 379/2/4
f 379/2/4 378/2/4 380/2/4
f 381/2/4 382/2/4 383/2/4
f 383/2/4 382/2/4 384/2/4
f 385/3/4 386/3/4 387/3/4
f 387/3/4 386/3/4 388/3/4
f 389/2/4 390/2/4 391/2/4
f 391/2/4 390/2/4 392/2/4
f 393/3/4 394/3/4 395/3/4
f 395/3/4 394/3/4 396/3/4
f 397/3/4 398/3/4 400/3/4
f 400/3/4 398/3/4 401/3/4
f 399/1/4 400/1/4 402/1/4
f 402/1/4 400/1/4 403/1/4
f 404/2/4 405/2/4 406/2/4
f 406/2/4 405/2/4 407/2/4
f 399/1/4 402/1/4 408/1/4
f 408/1/4 409/1/4 410/1/4
f 399/1/4 408/1/4 412/1/4
f 410/1/4 411/1/4 412/1/4
f 408/1/4 410/1/4 412/1/4
f 412/1/4 411/1/4 413/1/4
f 399/1/4 412/1/4 414/1/4
f 399/1/4 414/1/4 416/1/4
f 414/1/4 415/1/4 416/1/4
f 416/1/4 415/1/4 417/1/4
f 399/1/4 416/1/4 418/1/4
f 399/1/4 418/1/4 420/1/4
f 418/1/4 419/1/4 420/1/4
f 420/1/4 419/1/4 421/1/4
f 421/3/4 422/3/4 423/3/4
f 423/3/4 422/3/4 424/3/4
f 425/3/4 426/3/4 428/3/4
f 427/3/4 428/3/4 429/3/4
f 428/3/4 426/3/4 430/3/4
f 429/3/4 428/3/4 430/3/4
f 430/3/4 426/3/4 431/3/4
f 431/3/4 426/3/4 432/3/4
f 432/3/4 426/3/4 434/3/4
f 433/3/4 434/3/4 435/3/4
f 435/3/4 434/3/4 436/3/4
f 436/3/4 434/3/4 438/3/4
f 437/3/4 438/3/4 439/3/4
f 438/3/4 434/3/4 440/3/4
f 439/3/4 438/3/4 440/3/4
f 440/3/4 434/3/4 441/3/4
f 434/3/4 426/3/4 442/3/4
f 441/3/4 434/3/4 442/3/4
f 445/1/5 444/1/5 443/1/5
f 446/1/5 444/1/5 445/1/5
f 453/3/5 448/3/5 447/3/5
f 454/3/5 448/3/5 453/3/5
f 455/3/5 450/3/5 449/3/5
f 456/3/5 450/3/5 455/3/5
f 457/3/5 452/3/5 451/3/5
f 458/3/5 452/3/5 457/3/5
f 463/3/5 460/3/5 459/3/5
f 464/3/5 460/3/5 463/3/5
f 465/3/5 462/3/5 461/3/5
f 466/3/5 462/3/5 465/3/5
f 469/3/5 468/3/5 467/3/5
f 470/3/5 468/3/5 469/3/5
f 473/3/5 472/3/5 471/3/5
f 474/3/5 472/3/5 473/3/5
f 479/3/5 476/3/5 475/3/5
f 480/3/5 476/3/5 479/3/5
f 481/3/5 478/3/5 477/3/5
f 482/3/5 478/3/5 481/3/5
f 489/3/5 484/3/5 483/3/5
f 490/3/5 484/3/5 489/3/5
f 491/3/5 486/3/5 485/3/5
f 492/3/5 486/3/5 491/3/5
f 493/3/5 488/3/5 487/3/5
f 494/3/5 488/3/5 493/3/5
f 504/3/5 496/3/5 495/3/5
f 505/3/5 496/3/5 504/3/5
f 506/3/5 498/3/5 497/3/5
f 507/3/5 498/3/5 506/3/5
f 508/3/5 500/3/5 499/3/5
f 509/3/5 500/3/5 508/3/5
f 510/3/5 502/3/5 501/3/5
f 511/3/5 502/3/5 510/3/5
f 513/3/5 504/3/5 503/3/5
f 514/3/5 504/3/5 513/3/5
f 515/3/5 512/3/5 511/3/5
f 516/3/5 512/3/5 515/3/5
f 519/3/5 518/3/5 517/3/5
f 520/3/5 518/3/5 519/3/5
f 523/3/5 522/3/5 521/3/5
f 524/3/5 522/3/5 523/3/5
f 529/3/5 526/3/5 525/3/5
f 530/3/5 526/3/5 529/3/5
f 531/3/5 528/3/5 527/3/5
f 532/3/5 528/3/5 531/3/5
f 537/3/5 534/3/5 533/3/5
f 538/3/5 534/3/5 537/3/5
f 545/3/5 536/3/5 535/3/5
f 546/3/5 536/3/5 545/3/5
f 547/3/5 539/3/5 538/3/5
f 548/3/5 539/3/5 547/3/5
f 549/3/5 541/3/5 540/3/5
f 550/3/5 541/3/5 549/3/5
f 551/3/5 543/3/5 542/3/5
f 552/3/5 543/3/5 551/3/5
f 553/3/5 545/3/5 544/3/5
f 554/3/5 545/3/5 553/3/5
f 557/3/5 556/3/5 555/3/5
f 558/3/5 556/3/5 557/3/5
f 561/3/5 560/3/5 559/3/5
f 562/3/5 560/3/5 561/3/5
f 565/3/5 564/3/5 563/3/5
f 566/3/5 564/3/5 565/3/5
f 569/3/5 568/3/5 567/3/5
f 570/3/5 568/3/5 569/3/5
f 573/2/5 572/2/5 571/2/5
f 574/2/5 572/2/5 573/2/5
f 579/2/5 576/2/5 575/2/5
f 580/2/5 576/2/5 579/2/5
f 581/2/5 578/2/5 577/2/5
f 582/2/5 578/2/5 581/2/5
f 587/2/5 584/2/5 583/2/5
f 588/2/5 584/2/5 587/2/5
f 589/2/5 586/2/5 585/2/5
f 590/2/5 586/2/5 589/2/5
f 593/2/5 592/2/5 591/2/5
f 594/2/5 592/2/5 593/2/5
f 595/3/6 596/3/6 598/3/6
f 598/3/6 596/3/6 599/3/6
f 599/3/6 596/3/6 600/3/6
f 597/3/6 598/3/6 602/3/6
f 598/3/6 599/3/6 602/3/6
f 600/3/6 601/3/6 603/3/6
f 597/3/6 602/3/6 604/3/6
f 602/3/6 603/3/6 604/3/6
f 604/3/6 603/3/6 605/3/6
f 597/3/6 604/3/6 606/3/6
f 605/3/6 603/3/6 607/3/6
f 597/3/6 606/3/6 608/3/6
f 606/3/6 607/3/6 608/3/6
f 608/3/6 607/3/6 609/3/6
f 597/3/6 608/3/6 610/3/6
f 609/3/6 607/3/6 611/3/6
f 607/3/6 603/3/6 612/3/6
f 610/3/6 611/3/6 612/3/6
f 611/3/6 607/3/6 612/3/6
f 612/3/6 603/3/6 613/3/6
f 610/3/6 612/3/6 614/3/6
f 613/3/6 603/3/6 615/3/6
f 610/3/6 614/3/6 616/3/6
f 614/3/6 615/3/6 616/3/6
f 616/3/6 615/3/6 617/3/6
f 610/3/6 616/3/6 618/3/6
f 617/3/6 615/3/6 619/3/6
f 597/3/6 610/3/6 620/3/6
f 618/3/6 619/3/6 620/3/6
f 610/3/6 618/3/6 620/3/6
f 620/3/6 619/3/6 621/3/6
f 603/3/6 601/3/6 622/3/6
f 621/3/6 619/3/6 622/3/6
f 619/3/6 615/3/6 622/3/6
f 615/3/6 603/3/6 622/3/6
f 622/3/6 601/3/6 623/3/6
f 621/3/6 622/3/6 624/3/6
f 624/3/6 622/3/6 625/3/6
f 626/2/6 627/2/6 628/2/6
f 628/2/6 627/2/6 629/2/6
f 630/2/6 631/2/6 632/2/6
f 632/2/6 631/2/6 633/2/6
f 634/2/6 635/2/6 636/2/6
f 636/2/6 635/2/6 637/2/6
f 638/2/6 639/2/6 640/2/6
f 640/2/6 639/2/6 641/2/6
f 642/2/6 643/2/6 644/2/6
f 644/2/6 643/2/6 645/2/6
f 646/2/6 647/2/6 648/2/6
f 648/2/6 647/2/6 649/2/6
f 650/2/6 651/2/6 654/2/6
f 654/2/6 651/2/6 655/2/6
f 652/2/6 653/2/6 656/2/6
f 656/2/6 653/2/6 657/2/6
f 658/2/6 659/2/6 662/2/6
f 662/2/6 659/2/6 663/2/6
f 660/2/6 661/2/6 664/2/6
f 664/2/6 661/2/6 665/2/6
f 666/2/6 667/2/6 668/2/6
f 668/2/6 667/2/6 669/2/6
